:SAMPLES-PER-SECOND 30
:FULLY-SPECIFIED
:DEGREES
127
root  -32.7506 40.1298 -9.52576 176.217 -74.2386 177.037
RightUpLeg  -4.101 -10.6763 -5.33279
RightLeg  24.6417 1.4276 0.481285
RightFoot  -10.861 -0.0733707 0.0843108
RightToes  -1.74624e-010 0 -3.6325e-017
Spine  21.4719 -2.99614 1.2662
Spine1  7.7257 -3.52329 2.30778
HEad  -24.6454 14.078 -1.01876
LeftShoulder1  8.60016 -12.2563 -47.6246
LeftArm  -9.65554 17.2717 -26.8596
LeftForeArm  40.0314 -7.22979 -4.88769
LeftHand  -0.244104 0.0205437 5.32207
RightShoulder  5.50179 8.69241 39.0214
RightArm  -4.9066 -7.61935 29.8851
RightForeArm  41.0601 48.234 9.5246
RightHand  -0.604707 6.98939 -6.0019
LeftUpLeg  -12.1646 22.0322 6.58236
LeftLeg  14.5102 10.7507 2.53232
LeftFoot  4.13979 0.165724 -1.50431
LeftToes  8.00323e-011 -1.37366e-010 4.43692e-012
128
root  -31.9438 40.3165 -9.49054 177.809 -74.5726 175.219
RightUpLeg  -4.36858 -12.3552 -5.60116
RightLeg  22.9017 2.51812 0.952463
RightFoot  -8.7033 -0.0416488 -0.753701
RightToes  -1.74624e-010 0 -3.6325e-017
Spine  21.1417 -3.27251 0.521141
Spine1  7.46619 -4.30426 3.89851
HEad  -23.2191 13.3561 -1.20561
LeftShoulder1  8.65672 -12.3665 -47.6053
LeftArm  -9.66236 13.8512 -26.161
LeftForeArm  39.9609 -8.06614 -5.04292
LeftHand  -0.244104 0.0205437 5.32207
RightShoulder  5.33587 8.48789 38.4339
RightArm  -4.74086 -8.82976 29.8067
RightForeArm  35.4503 41.0679 7.44951
RightHand  -0.806132 7.8319 -7.42538
LeftUpLeg  -11.119 22.3491 5.59605
LeftLeg  20.4439 11.2011 5.01925
LeftFoot  -0.116976 0.22604 -2.32713
LeftToes  8.00323e-011 -1.37366e-010 4.43692e-012
129
root  -31.1551 40.4486 -9.4078 178.559 -74.8979 174.368
RightUpLeg  -4.70676 -13.7216 -5.64614
RightLeg  21.2093 3.35381 1.42606
RightFoot  -6.6787 0.00968847 -1.36142
RightToes  -1.74624e-010 0 -3.6325e-017
Spine  20.7451 -3.55515 -0.103162
Spine1  7.07189 -5.08037 5.64949
HEad  -21.7978 12.5167 -1.32563
LeftShoulder1  8.71077 -12.5198 -47.4427
LeftArm  -9.75205 10.5596 -25.8236
LeftForeArm  39.0039 -9.72709 -5.1143
LeftHand  -0.244104 0.0205437 5.32207
RightShoulder  5.2086 8.33972 37.9366
RightArm  -4.86411 -10.2744 29.4801
RightForeArm  31.3832 34.3168 5.82871
RightHand  -0.9593 8.65425 -8.28345
LeftUpLeg  -9.63769 20.4297 5.36419
LeftLeg  26.3021 11.6388 6.50963
LeftFoot  -2.86758 0.303558 -3.84259
LeftToes  8.00323e-011 -1.37366e-010 4.43692e-012
130
root  -30.3738 40.5052 -9.29085 178.613 -75.3364 174.469
RightUpLeg  -5.37424 -14.1421 -5.44459
RightLeg  19.7502 3.23602 1.85478
RightFoot  -4.98513 0.0623795 -1.73319
RightToes  -1.74624e-010 0 -3.6325e-017
Spine  20.2072 -3.96444 -0.602982
Spine1  6.52792 -5.92403 7.34782
HEad  -20.381 11.8755 -1.32933
LeftShoulder1  8.72199 -12.6771 -47.0346
LeftArm  -9.48835 7.49312 -25.7504
LeftForeArm  36.8913 -12.2284 -4.91219
LeftHand  -0.244104 0.0205437 5.32207
RightShoulder  5.1442 8.25881 37.7
RightArm  -4.89995 -11.8698 28.8219
RightForeArm  28.0143 28.3351 4.58204
RightHand  -1.05889 9.10423 -8.83453
LeftUpLeg  -8.0922 18.5773 5.04041
LeftLeg  31.5864 10.9254 7.49923
LeftFoot  -4.86805 0.292946 -4.65053
LeftToes  8.00323e-011 -1.37366e-010 4.43692e-012
131
root  -29.5788 40.5052 -9.14365 178.1 -75.8788 175.349
RightUpLeg  -6.3736 -13.9874 -5.02624
RightLeg  18.4554 2.49956 2.21994
RightFoot  -3.40911 0.123261 -2.10716
RightToes  -1.74624e-010 0 -3.6325e-017
Spine  19.6219 -4.528 -1.14115
Spine1  5.85478 -6.90461 9.00008
HEad  -19.0381 11.5682 -1.43174
LeftShoulder1  8.65646 -12.7409 -46.4851
LeftArm  -9.0644 4.70958 -25.8368
LeftForeArm  34.111 -15.6737 -4.264
LeftHand  -0.244104 0.0205437 5.32207
RightShoulder  5.08622 8.16373 37.564
RightArm  -4.7504 -13.4715 28.0071
RightForeArm  25.2322 23.4505 3.78011
RightHand  -1.11324 9.07396 -9.28484
LeftUpLeg  -6.24248 16.8913 4.75885
LeftLeg  35.7404 10.0205 8.01527
LeftFoot  -6.78978 0.241504 -5.04803
LeftToes  8.00323e-011 -1.37366e-010 4.43692e-012
132
root  -28.7426 40.4701 -8.95462 177.034 -76.2298 176.723
RightUpLeg  -7.50731 -13.5082 -4.51656
RightLeg  17.3172 1.64028 2.53133
RightFoot  -1.73128 0.192068 -2.42461
RightToes  -1.74624e-010 0 -3.6325e-017
Spine  19.245 -5.08858 -1.74629
Spine1  5.1503 -7.85653 10.5366
HEad  -18.0167 11.509 -1.70118
LeftShoulder1  8.56827 -12.7349 -46.0154
LeftArm  -9.47361 2.14129 -25.8813
LeftForeArm  32.0498 -19.8241 -3.4802
LeftHand  -0.244104 0.0205437 5.32207
RightShoulder  5.0041 8.03065 37.3618
RightArm  -5.52828 -15.0987 27.2188
RightForeArm  24.4179 20.0003 3.72158
RightHand  -1.09499 8.67181 -9.38114
LeftUpLeg  -3.84378 15.7748 4.66525
LeftLeg  38.4369 9.33528 8.22563
LeftFoot  -8.18011 0.197366 -5.37826
LeftToes  8.00323e-011 -1.37366e-010 4.43692e-012
133
root  -27.857 40.3856 -8.71897 175.49 -76.152 178.347
RightUpLeg  -8.73066 -12.9664 -3.97301
RightLeg  16.5613 1.09386 2.79339
RightFoot  -0.104046 0.234038 -2.38842
RightToes  -1.74624e-010 0 -3.6325e-017
Spine  19.1854 -5.50549 -2.32538
Spine1  4.60016 -8.59201 11.8009
HEad  -17.5411 11.6394 -1.88492
LeftShoulder1  8.50595 -12.7485 -45.6302
LeftArm  -11.6862 -0.405695 -25.672
LeftForeArm  32.1245 -24.1271 -3.44377
LeftHand  -0.244104 0.0205437 5.32207
RightShoulder  4.94274 7.93279 37.2019
RightArm  -7.05461 -16.7212 26.5534
RightForeArm  25.2453 18.0641 3.92005
RightHand  -1.03077 8.37739 -9.03351
LeftUpLeg  -0.850802 15.0856 4.73565
LeftLeg  39.5661 8.47633 7.80588
LeftFoot  -7.99845 0.224614 -6.00016
LeftToes  8.00323e-011 -1.37366e-010 4.43692e-012
134
root  -26.9293 40.231 -8.44962 173.609 -75.7952 -179.79
RightUpLeg  -10.1841 -12.6312 -3.31323
RightLeg  16.2455 0.928475 3.00794
RightFoot  1.31776 0.226662 -1.96255
RightToes  -1.74624e-010 0 -3.6325e-017
Spine  19.2862 -5.82043 -2.87505
Spine1  4.28597 -9.17322 12.8068
HEad  -17.5354 11.9211 -1.82306
LeftShoulder1  8.43671 -12.7836 -45.1437
LeftArm  -14.4769 -3.08108 -25.1587
LeftForeArm  33.5009 -28.3054 -4.29719
LeftHand  -0.244104 0.0205437 5.32207
RightShoulder  4.91569 7.89188 37.1221
RightArm  -8.36188 -18.182 26.2148
RightForeArm  26.1226 17.3923 3.8914
RightHand  -0.98482 8.49119 -8.58367
LeftUpLeg  2.613 14.2423 4.7731
LeftLeg  38.8245 6.6099 6.05234
LeftFoot  -6.63452 0.354367 -7.60393
LeftToes  8.00323e-011 -1.37366e-010 4.43692e-012
135
root  -25.9583 40.0449 -8.16033 171.825 -75.4161 -177.93
RightUpLeg  -11.7968 -12.3985 -2.54736
RightLeg  15.807 0.8306 3.14883
RightFoot  2.8881 0.204009 -1.47429
RightToes  -1.74624e-010 0 -3.6325e-017
Spine  19.3118 -6.07046 -3.5602
Spine1  4.10167 -9.7137 13.6273
HEad  -17.7071 12.1994 -1.68692
LeftShoulder1  8.32442 -12.7778 -44.5334
LeftArm  -15.8801 -5.86424 -24.4327
LeftForeArm  34.5792 -32.4444 -5.19521
LeftHand  -0.244104 0.0205437 5.32207
RightShoulder  4.85765 7.81966 36.8912
RightArm  -9.4209 -19.3885 26.4966
RightForeArm  26.4076 17.6648 3.75204
RightHand  -0.962214 8.66984 -8.29591
LeftUpLeg  6.33307 13.2324 4.61929
LeftLeg  35.7541 3.86774 3.36775
LeftFoot  -6.38675 0.452107 -9.66869
LeftToes  8.00323e-011 -1.37366e-010 4.43692e-012
136
root  -24.94 39.8994 -7.85568 170.929 -74.9841 -176.829
RightUpLeg  -13.271 -11.9184 -1.88005
RightLeg  14.5657 0.54798 3.16351
RightFoot  4.99411 0.19298 -1.10465
RightToes  -1.74624e-010 0 -3.6325e-017
Spine  19.1876 -6.10843 -4.59808
Spine1  3.85365 -10.1106 14.2176
HEad  -17.838 12.3883 -1.58248
LeftShoulder1  8.19718 -12.7158 -43.9951
LeftArm  -16.4746 -8.59558 -23.6239
LeftForeArm  36.3733 -36.5058 -6.11488
LeftHand  -0.244104 0.0205437 5.32207
RightShoulder  4.75334 7.6823 36.4972
RightArm  -9.99491 -20.2828 27.3305
RightForeArm  25.8907 18.5516 3.63814
RightHand  -0.937348 8.57376 -8.14413
LeftUpLeg  9.9919 13.0451 4.38469
LeftLeg  30.2585 1.42825 1.24785
LeftFoot  -9.11699 0.256718 -10.1737
LeftToes  8.00323e-011 -1.37366e-010 4.43692e-012
137
root  -23.8757 39.7783 -7.5371 171.333 -74.359 -176.876
RightUpLeg  -14.7289 -11.2152 -1.40767
RightLeg  12.7787 0.208878 3.05189
RightFoot  7.1831 0.122193 -0.450081
RightToes  -1.74624e-010 0 -3.6325e-017
Spine  19.117 -5.82389 -6.0762
Spine1  3.34983 -10.2399 14.6803
HEad  -17.9349 12.6759 -1.321
LeftShoulder1  8.09398 -12.6353 -43.6399
LeftArm  -16.9511 -11.1032 -22.895
LeftForeArm  39.1863 -40.3772 -7.02327
LeftHand  -0.244104 0.0205437 5.32207
RightShoulder  4.70026 7.59455 36.3588
RightArm  -9.97455 -20.662 28.1409
RightForeArm  25.0941 19.5608 3.5976
RightHand  -0.926665 8.4338 -8.13157
LeftUpLeg  12.9394 14.7505 4.30784
LeftLeg  23.3628 0.0503293 0.412883
LeftFoot  -13.9968 -0.0919987 -8.0089
LeftToes  8.00323e-011 -1.37366e-010 4.43692e-012
138
root  -22.7645 39.5973 -7.20984 173.134 -73.5842 -178.12
RightUpLeg  -16.6654 -10.6645 -1.15746
RightLeg  11.2772 0.189127 2.88857
RightFoot  8.7459 -0.135155 1.10489
RightToes  -1.74624e-010 0 -3.6325e-017
Spine  19.3403 -5.32176 -8.00453
Spine1  2.56782 -10.1741 15.2123
HEad  -18.2792 13.1948 -0.884531
LeftShoulder1  8.02151 -12.5624 -43.4341
LeftArm  -17.6323 -13.2466 -22.1544
LeftForeArm  42.0787 -44.0181 -7.96817
LeftHand  -0.244104 0.0205437 5.32207
RightShoulder  4.76751 7.65713 36.713
RightArm  -9.79329 -20.3514 28.6911
RightForeArm  24.7802 20.3893 3.5784
RightHand  -0.960239 8.55469 -8.34305
LeftUpLeg  13.9943 16.5365 3.71223
LeftLeg  17.7489 0.984155 0.160376
LeftFoot  -18.6751 -0.167316 -4.34711
LeftToes  8.00323e-011 -1.37366e-010 4.43692e-012
